<svg width="128" height="128" xmlns="http://www.w3.org/2000/svg" xmlns:xlink="http://www.w3.org/1999/xlink" xml:space="preserve" overflow="hidden"><g transform="translate(-754 -536)"><path d="M797.9 641.9 761.2 641.9 770.7 619.4 796.4 619.4 825 553.1 794.3 553.1 771.8 605.5 785.6 605.5C786.6 607.1 788.3 608.2 790.3 608.2 793.3 608.2 795.8 605.7 795.8 602.7 795.8 599.7 793.3 597.2 790.3 597.2 788.1 597.2 786.2 598.5 785.3 600.4L778.7 600.4 797.4 558.1 817.5 558.1 793.4 614.3 768 614.5 754 646.9 801.2 646.9 807.4 633.4 827.9 633.4 834.7 646.9 882 646.9 839.3 553.1 797.9 641.9ZM810 628.1 817.4 612 825.4 628.1 810 628.1ZM837.8 642.5 833.1 633.1 847.7 633.1C848.7 634.9 850.5 636.1 852.6 636.1 855.6 636.1 858.1 633.6 858.1 630.6 858.1 627.6 855.6 625.1 852.6 625.1 850.4 625.1 848.4 626.5 847.5 628.4L830.9 628.4 819.8 606.6 828 588.6 837.2 607.4 841.5 607.4C842.4 609.2 844.3 610.6 846.5 610.6 849.5 610.6 852 608.1 852 605.1 852 602.1 849.5 599.6 846.5 599.6 844.2 599.6 842.2 601 841.4 603.1L839.8 603.1 830.3 583.7 839.4 563.8 875 642.5 837.8 642.5Z" stroke="#000000"/></g></svg>