<svg width="128" height="128" xmlns="http://www.w3.org/2000/svg" xmlns:xlink="http://www.w3.org/1999/xlink" xml:space="preserve" overflow="hidden"><g transform="translate(-576 -296)"><path d="M651.4 360C651.4 366.296 646.296 371.4 640 371.4 633.704 371.4 628.6 366.296 628.6 360 628.6 353.704 633.704 348.6 640 348.6 646.296 348.6 651.4 353.704 651.4 360Z" stroke="#000000"/><path d="M683.3 341.2C681.1 340.4 678.8 339.6 676.4 338.9 677 336.5 677.5 334.1 677.9 331.8 680 318.6 677.7 309.3 671.3 305.7 669.4 304.6 667.3 304.1 664.9 304.1 657.9 304.1 649 309.3 640 318 631 309.3 622.1 304.1 615.1 304.1 612.7 304.1 610.6 304.6 608.7 305.7 602.3 309.4 600 318.7 602.1 331.8 602.5 334.1 603 336.5 603.6 338.9 601.2 339.6 598.9 340.3 596.7 341.2 584.2 346 577.4 352.6 577.4 360 577.4 367.4 584.3 374 596.7 378.8 598.9 379.6 601.2 380.4 603.6 381.1 603 383.5 602.5 385.9 602.1 388.2 600 401.4 602.3 410.7 608.7 414.3 610.6 415.4 612.7 415.9 615.1 415.9 622.2 415.9 631.1 410.7 640 402 649 410.7 657.9 415.9 664.9 415.9 667.3 415.9 669.4 415.4 671.3 414.3 677.7 410.6 680 401.3 677.9 388.2 677.5 385.9 677 383.5 676.4 381.1 678.8 380.4 681.1 379.7 683.3 378.8 695.8 374 702.6 367.4 702.6 360 702.6 352.6 695.8 346 683.3 341.2ZM668.5 310.7C672.6 313.1 674 320.5 672.3 331 672 333.1 671.5 335.3 670.9 337.6 665.7 336.4 660.2 335.6 654.4 335.1 651 330.3 647.5 326 644 322.1 651.4 314.8 658.9 309.8 665 309.8 666.3 309.8 667.5 310.1 668.5 310.7ZM657.3 370C655.5 373.2 653.4 376.4 651.2 379.6 647.5 379.9 643.8 380 640 380 636.1 380 632.4 379.9 628.8 379.6 626.6 376.4 624.6 373.2 622.8 370 620.9 366.7 619.1 363.3 617.5 360 619.1 356.7 620.9 353.3 622.8 350 624.6 346.8 626.7 343.6 628.9 340.4 632.6 340.1 636.3 340 640.1 340 644 340 647.7 340.1 651.3 340.4 653.5 343.6 655.5 346.8 657.3 350 659.2 353.3 661 356.7 662.6 360 660.9 363.3 659.2 366.6 657.3 370ZM665.6 366.7C667.1 370.2 668.3 373.6 669.4 377 666 377.8 662.4 378.4 658.6 378.9 659.8 377 661.1 375 662.2 372.9 663.4 370.8 664.5 368.7 665.6 366.7ZM640 393.8C637.6 391.2 635.3 388.4 633.1 385.5 635.4 385.6 637.7 385.7 640 385.7 642.3 385.7 644.6 385.6 646.9 385.5 644.7 388.4 642.4 391.2 640 393.8ZM621.4 378.8C617.6 378.3 614 377.7 610.6 376.9 611.7 373.6 612.9 370.1 614.4 366.6 615.5 368.6 616.6 370.7 617.8 372.7 619 374.9 620.2 376.8 621.4 378.8ZM614.4 353.3C612.9 349.8 611.7 346.4 610.6 343 614 342.2 617.6 341.6 621.4 341.1 620.2 343 618.9 345 617.8 347.1 616.6 349.2 615.5 351.3 614.4 353.3ZM640 326.2C642.4 328.8 644.7 331.6 646.9 334.5 644.6 334.4 642.3 334.3 640 334.3 637.7 334.3 635.4 334.4 633.1 334.5 635.3 331.6 637.6 328.8 640 326.2ZM662.2 347.2 658.6 341.2C662.4 341.7 666 342.3 669.4 343.1 668.3 346.4 667.1 349.9 665.6 353.4 664.5 351.3 663.4 349.2 662.2 347.2ZM607.7 331C606 320.5 607.4 313.1 611.5 310.7 612.5 310.1 613.7 309.8 615 309.8 621 309.8 628.5 314.7 636 322.1 632.5 325.9 629 330.3 625.6 335.1 619.8 335.6 614.3 336.5 609.1 337.6 608.5 335.3 608.1 333.1 607.7 331ZM583 360C583 355.3 588.7 350.3 598.7 346.6 600.7 345.8 602.9 345.1 605.1 344.5 606.7 349.5 608.7 354.8 611.1 360.1 608.7 365.4 606.6 370.6 605.1 375.6 591.3 371.6 583 365.6 583 360ZM611.5 409.3C607.4 406.9 606 399.5 607.7 389 608 386.9 608.5 384.7 609.1 382.4 614.3 383.6 619.8 384.4 625.6 384.9 629 389.7 632.5 394 636 397.9 628.6 405.2 621.1 410.2 615 410.2 613.7 410.2 612.5 409.9 611.5 409.3ZM672.3 389C674 399.5 672.6 406.9 668.5 409.3 667.5 409.9 666.3 410.2 665 410.2 659 410.2 651.5 405.3 644 397.9 647.5 394.1 651 389.7 654.4 384.9 660.2 384.4 665.7 383.5 670.9 382.4 671.5 384.7 671.9 386.9 672.3 389ZM681.3 373.4C679.3 374.2 677.1 374.9 674.9 375.5 673.3 370.5 671.3 365.2 668.9 359.9 671.3 354.6 673.4 349.4 674.9 344.4 688.7 348.4 697 354.4 697 360 697 364.7 691.2 369.7 681.3 373.4Z" stroke="#000000"/></g></svg>